:SAMPLES-PER-SECOND 30
:FRAME-RANGE 1-564
:FULLY-SPECIFIED
:DEGREES
335
root  14.3882 40.1283 -65.9196 170.234 -63.7985 -178.626
RightUpLeg  15.9637 -2.02514 2.26647
RightLeg  -10.2635 -14.1336 1.87192
RightFoot  0.771554 -0.0639282 0.708696
RightToes  -1.74624e-010 0 -3.6325e-017
Spine  12.4714 5.54171 11.23
Spine1  -3.97117 8.62571 -12.2805
HEad  2.60214 4.58185 -1.76706
LeftShoulder1  2.82125 -4.74337 -28.1474
LeftArm  -4.38937 -5.67444 -6.5769
LeftForeArm  -43.784 -69.4367 -36.5559
LeftHand  0.0187747 7.3135 3.26719
RightShoulder  15.0368 24.9683 45.9943
RightArm  -2.76707 22.2517 -1.09476
RightForeArm  -46.0764 52.5324 17.3478
RightHand  2.51938 7.54585 21.8913
LeftUpLeg  8.25936 -0.523297 -4.21461
LeftLeg  -0.776982 -25.6719 4.66723
LeftFoot  -0.959643 -0.586045 6.50749
LeftToes  -6.43926e-010 8.38805e-011 -3.16407e-011
336
root  14.2194 40.1216 -66.1831 170.248 -62.1209 -179.072
RightUpLeg  16.6123 -2.07855 2.33643
RightLeg  -9.94413 -12.558 1.43005
RightFoot  0.274754 -0.0549453 0.558335
RightToes  -1.74624e-010 0 -3.6325e-017
Spine  12.0878 5.96456 11.4592
Spine1  -3.60164 9.17033 -12.8269
HEad  3.92659 3.9638 -1.32293
LeftShoulder1  2.77051 -4.53349 -28.4151
LeftArm  -4.3179 -3.97084 -6.0032
LeftForeArm  -37.6169 -71.4011 -41.4682
LeftHand  0.0427034 7.04922 5.1884
RightShoulder  15.0713 24.8621 46.2864
RightArm  -1.87911 21.6877 -0.965198
RightForeArm  -44.7003 53.5056 17.9152
RightHand  2.40836 7.8499 20.4464
LeftUpLeg  9.05453 0.156402 -3.7599
LeftLeg  -0.450337 -24.7082 4.11286
LeftFoot  -1.48297 -0.576756 6.78315
LeftToes  -6.43926e-010 8.38805e-011 -3.16407e-011
337
root  14.0477 40.0924 -66.3955 170.379 -60.5148 -179.676
RightUpLeg  17.2109 -2.07053 2.28333
RightLeg  -9.54778 -11.0353 0.843889
RightFoot  -0.480221 -0.0708971 0.711017
RightToes  -1.74624e-010 0 -3.6325e-017
Spine  11.8654 6.27752 11.6334
Spine1  -3.56642 9.55847 -13.3507
HEad  5.25477 3.52923 -1.16107
LeftShoulder1  2.73063 -4.40997 -28.4493
LeftArm  -4.09126 -1.99981 -5.64839
LeftForeArm  -29.8519 -73.3189 -47.8886
LeftHand  0.0564213 6.7637 7.10184
RightShoulder  15.1089 24.7734 46.559
RightArm  -0.844236 21.0528 -0.846393
RightForeArm  -43.1768 54.3527 18.4229
RightHand  2.30178 8.41753 18.7258
LeftUpLeg  10.0021 0.511002 -3.71162
LeftLeg  -0.387438 -23.3545 3.94155
LeftFoot  -2.16425 -0.545961 6.95664
LeftToes  -6.43926e-010 8.38805e-011 -3.16407e-011
338
root  13.865 40.0725 -66.5857 170.238 -59.3298 179.966
RightUpLeg  17.7571 -1.73616 2.54287
RightLeg  -8.87199 -10.3705 0.0470783
RightFoot  -1.28135 -0.112831 1.18223
RightToes  -1.74624e-010 0 -3.6325e-017
Spine  11.549 6.32279 11.7703
Spine1  -3.42691 9.64449 -13.6359
HEad  6.32121 3.32798 -1.1901
LeftShoulder1  2.70081 -4.31815 -28.4731
LeftArm  -3.81739 0.0512039 -5.28853
LeftForeArm  -21.4197 -74.9294 -55.4987
LeftHand  0.0555604 6.56662 8.00811
RightShoulder  15.2481 24.7119 47.1093
RightArm  -0.100885 20.72 -0.942939
RightForeArm  -42.049 54.4599 18.4581
RightHand  2.28654 9.0462 17.7738
LeftUpLeg  11.1484 0.775799 -3.67264
LeftLeg  -0.658116 -22.4736 4.0105
LeftFoot  -2.77813 -0.507821 6.99798
LeftToes  -6.43926e-010 8.38805e-011 -3.16407e-011
339
root  13.6992 40.0569 -66.747 170.028 -58.5123 179.712
RightUpLeg  18.2318 -1.85027 2.45263
RightLeg  -8.17632 -9.53257 -0.287402
RightFoot  -1.99707 -0.126458 1.38034
RightToes  -1.74624e-010 0 -3.6325e-017
Spine  11.0937 6.22693 11.7941
Spine1  -3.03485 9.54187 -13.5745
HEad  6.9448 2.6736 -1.43674
LeftShoulder1  2.6597 -4.1844 -28.5399
LeftArm  -3.37682 1.79302 -5.4294
LeftForeArm  -13.4763 -75.9926 -62.6876
LeftHand  0.0641152 6.48474 9.30111
RightShoulder  15.3724 24.6632 47.5895
RightArm  -0.206182 20.7901 -0.790411
RightForeArm  -42.1617 53.7896 18.0187
RightHand  2.38663 9.06224 18.5338
LeftUpLeg  12.2497 1.18165 -3.51489
LeftLeg  -1.08451 -22.1319 3.96739
LeftFoot  -3.191 -0.483611 7.04919
LeftToes  -6.43926e-010 8.38805e-011 -3.16407e-011
340
root  13.5299 40.0477 -66.8734 169.98 -58.0646 179.396
RightUpLeg  18.4685 -1.88997 2.33892
RightLeg  -7.24238 -9.06087 -0.666994
RightFoot  -2.83056 -0.141938 1.6479
RightToes  -1.74624e-010 0 -3.6325e-017
Spine  10.6357 6.00521 11.872
Spine1  -2.65507 9.3446 -13.6636
HEad  7.31055 1.62283 -1.6791
LeftShoulder1  2.6426 -4.14635 -28.4868
LeftArm  -2.7846 3.23196 -6.01183
LeftForeArm  -6.72307 -76.6149 -68.5359
LeftHand  0.0564436 6.29979 10.0087
RightShoulder  15.3048 24.3033 48.0116
RightArm  -0.615956 20.7524 -1.02513
RightForeArm  -41.3814 53.4498 17.7738
RightHand  2.55752 9.71702 18.9861
LeftUpLeg  13.2709 1.5236 -3.45595
LeftLeg  -1.72324 -21.76 3.9769
LeftFoot  -3.45181 -0.470321 7.11313
LeftToes  -6.43926e-010 8.38805e-011 -3.16407e-011
341
root  13.3761 40.0269 -66.9894 169.75 -57.5172 179.283
RightUpLeg  18.2709 -1.66039 2.45243
RightLeg  -5.42124 -8.7148 -1.23119
RightFoot  -4.12625 -0.152966 1.98016
RightToes  -1.74624e-010 0 -3.6325e-017
Spine  10.3689 5.67904 11.9283
Spine1  -2.44964 9.01639 -13.7598
HEad  7.49017 0.450885 -1.99868
LeftShoulder1  2.62668 -4.13946 -28.3052
LeftArm  -2.33651 4.67764 -6.63301
LeftForeArm  -0.37829 -77.021 -73.7212
LeftHand  0.038004 6.01097 10.8316
RightShoulder  15.1402 23.9105 48.1886
RightArm  -0.847861 20.7168 -1.09102
RightForeArm  -40.53 53.5489 17.8074
RightHand  2.70844 10.1245 19.57
LeftUpLeg  14.1491 2.16662 -3.06328
LeftLeg  -2.03876 -21.6804 3.66403
LeftFoot  -3.99765 -0.442148 7.25585
LeftToes  -6.43926e-010 8.38805e-011 -3.16407e-011
342
root  13.2661 39.9681 -67.1096 169.517 -56.3171 179.123
RightUpLeg  17.1789 -0.963095 2.86592
RightLeg  -1.95038 -8.26159 -2.3311
RightFoot  -6.04744 -0.164822 2.67483
RightToes  -1.74624e-010 0 -3.6325e-017
Spine  10.4888 5.51909 11.7698
Spine1  -2.41737 8.80164 -13.7721
HEad  7.55938 -1.01583 -2.04388
LeftShoulder1  2.62369 -4.09337 -28.4782
LeftArm  -2.11562 5.76138 -6.64767
LeftForeArm  4.0296 -77.242 -77.5962
LeftHand  0.0333545 5.95425 10.9047
RightShoulder  15.1173 23.7807 48.3504
RightArm  -1.08 20.5456 -1.16649
RightForeArm  -39.7656 53.7614 17.9168
RightHand  2.782 10.385 19.764
LeftUpLeg  14.6911 3.14917 -2.37716
LeftLeg  -1.49381 -21.5889 2.75817
LeftFoot  -4.91908 -0.38439 7.37002
LeftToes  -6.43926e-010 8.38805e-011 -3.16407e-011
343
root  13.1915 39.8968 -67.2262 169.518 -54.4138 178.812
RightUpLeg  14.8202 -0.270529 2.95367
RightLeg  3.77398 -6.58847 -3.38713
RightFoot  -8.5866 -0.150959 3.85032
RightToes  -1.74624e-010 0 -3.6325e-017
Spine  10.8648 5.58375 11.55
Spine1  -2.60581 8.81613 -13.8398
HEad  7.77665 -2.80909 -2.16529
LeftShoulder1  2.62373 -4.05136 -28.6752
LeftArm  -2.02384 6.57281 -6.56916
LeftForeArm  7.50938 -77.3695 -80.5525
LeftHand  0.0369437 5.99096 10.9467
RightShoulder  15.0051 23.5146 48.4723
RightArm  -1.23788 20.4183 -1.11944
RightForeArm  -38.9085 53.951 18.0081
RightHand  2.87935 10.5739 20.2094
LeftUpLeg  14.9926 3.90933 -1.94536
LeftLeg  -0.688927 -20.4538 1.87331
LeftFoot  -5.96591 -0.311186 7.38498
LeftToes  -6.43926e-010 8.38805e-011 -3.16407e-011
344
root  13.12 39.8116 -67.3754 169.551 -51.928 178.387
RightUpLeg  11.8572 3.63065 3.34033
RightLeg  10.758 -7.28866 -3.49055
RightFoot  -10.6467 -0.108891 6.02177
RightToes  -1.74624e-010 0 -3.6325e-017
Spine  11.291 5.83484 11.1214
Spine1  -2.73349 8.97784 -13.7572
HEad  8.27408 -4.8316 -2.26544
LeftShoulder1  2.64315 -4.05615 -28.9155
LeftArm  -1.96971 7.18744 -6.33147
LeftForeArm  11.3417 -77.4629 -83.2695
LeftHand  0.00903886 5.67882 11.0668
RightShoulder  14.9809 23.279 48.8299
RightArm  -1.35619 20.287 -1.08109
RightForeArm  -37.9827 53.9148 17.9488
RightHand  3.01378 11.0909 20.4783
LeftUpLeg  15.529 4.73292 -1.53863
LeftLeg  -0.113316 -18.8869 1.03383
LeftFoot  -6.9146 -0.249479 7.52261
LeftToes  -6.43926e-010 8.38805e-011 -3.16407e-011
345
root  13.0277 39.729 -67.5642 169.435 -49.43 178.074
RightUpLeg  9.18738 7.73312 3.46873
RightLeg  16.7627 -9.51301 -3.47168
RightFoot  -12.2833 -0.0215768 7.52184
RightToes  -1.74624e-010 0 -3.6325e-017
Spine  11.4634 6.04907 10.5262
Spine1  -2.66905 9.03999 -13.4221
HEad  9.16634 -7.00195 -2.42238
LeftShoulder1  2.67861 -4.08267 -29.2681
LeftArm  -1.89001 7.63175 -6.10422
LeftForeArm  13.7483 -77.5033 -84.4668
LeftHand  -0.0371881 5.17079 10.5906
RightShoulder  15.0074 22.8906 49.6511
RightArm  -1.5871 20.1982 -1.00288
RightForeArm  -37.2697 53.4738 17.6362
RightHand  3.09912 11.4051 20.6576
LeftUpLeg  16.2734 5.44319 -1.20724
LeftLeg  0.262632 -17.242 0.471462
LeftFoot  -7.78506 -0.183729 7.41947
LeftToes  -6.43926e-010 8.38805e-011 -3.16407e-011
346
root  12.9087 39.7084 -67.776 169.173 -47.2249 178.029
RightUpLeg  6.64353 6.68093 2.39265
RightLeg  21.1454 -8.82101 -3.95405
RightFoot  -13.6799 0.0531566 7.14868
RightToes  -1.74624e-010 0 -3.6325e-017
Spine  11.3965 6.06371 10.0452
Spine1  -2.4751 8.92873 -12.8348
HEad  10.1816 -9.24806 -2.70632
LeftShoulder1  2.71658 -4.12403 -29.5805
LeftArm  -1.86234 7.7441 -6.06401
LeftForeArm  14.8606 -77.5175 -84.5772
LeftHand  -0.0550357 4.96736 10.6054
RightShoulder  14.8264 22.2208 50.3437
RightArm  -1.49971 19.8524 -1.0829
RightForeArm  -36.227 53.463 17.5868
RightHand  3.26648 11.9147 21.1206
LeftUpLeg  17.5535 5.91324 -0.865191
LeftLeg  -0.602938 -15.6105 0.463138
LeftFoot  -8.13716 -0.151343 7.15524
LeftToes  -6.43926e-010 8.38805e-011 -3.16407e-011
347
root  12.7771 39.696 -68.0108 168.715 -45.1082 178.32
RightUpLeg  4.31228 5.28472 1.29231
RightLeg  24.0113 -9.30824 -4.72052
RightFoot  -14.0476 0.0619277 6.65296
RightToes  -1.74624e-010 0 -3.6325e-017
Spine  11.1678 5.93569 9.7966
Spine1  -2.07537 8.70627 -12.1612
HEad  11.0409 -11.1788 -3.03942
LeftShoulder1  2.76108 -4.17733 -29.9188
LeftArm  -1.94334 7.61358 -6.16257
LeftForeArm  14.9103 -77.5086 -83.5419
LeftHand  -0.0738225 4.75074 10.5623
RightShoulder  14.5587 21.53 50.8095
RightArm  -1.2938 19.2561 -1.12921
RightForeArm  -35.2137 53.6729 17.6781
RightHand  3.38215 12.5632 21.0664
LeftUpLeg  18.8147 6.42739 -0.237823
LeftLeg  -1.42203 -14.2562 0.376241
LeftFoot  -8.35351 -0.13061 6.92993
LeftToes  -6.43926e-010 8.38805e-011 -3.16407e-011
348
root  12.6439 39.6758 -68.2803 168.18 -43.1936 178.687
RightUpLeg  2.33956 3.8246 0.0785212
RightLeg  25.1888 -9.67196 -5.14186
RightFoot  -13.4605 0.0198891 6.01115
RightToes  -1.74624e-010 0 -3.6325e-017
Spine  11.2629 5.56934 9.522
Spine1  -2.03229 8.25003 -11.6024
HEad  11.8791 -12.5924 -3.2201
LeftShoulder1  2.78502 -4.23838 -29.9454
LeftArm  -1.85498 7.48709 -6.38315
LeftForeArm  14.7464 -77.4978 -82.8192
LeftHand  -0.0534393 4.98413 10.5554
RightShoulder  14.2823 20.7278 51.501
RightArm  -0.988645 18.6706 -1.24692
RightForeArm  -34.3513 53.8888 17.78
RightHand  3.47608 12.9434 21.195
LeftUpLeg  19.8354 6.74804 0.307189
LeftLeg  -1.64544 -12.9325 0.317993
LeftFoot  -8.62638 -0.113939 6.99312
LeftToes  -6.43926e-010 8.38805e-011 -3.16407e-011
